<svg width="284" height="240" viewBox="0 0 284 240" fill="none" xmlns="http://www.w3.org/2000/svg">
<path d="M72.7988 47.9126H72.5166C72.7013 49.1632 72.7988 50.4428 72.7988 51.7447V92.7222C73.4491 97.6175 74.527 102.416 76.0186 107.025C78.6296 115.093 82.4558 122.425 87.2803 128.6C92.1048 134.775 97.8331 139.674 104.137 143.016C110.44 146.358 117.197 148.078 124.02 148.078C130.842 148.078 137.598 146.358 143.901 143.016C150.205 139.674 155.933 134.775 160.758 128.6C165.582 122.425 169.409 115.093 172.021 107.025C172.564 105.346 173.051 103.642 173.483 101.918C173.041 99.4959 172.9 96.9565 173.105 94.3326L176.497 51.0718C178.18 29.605 201.845 17.3948 220.315 28.4634L262.844 53.9488C283.55 66.3576 280.916 97.1547 258.404 105.869L244.312 111.323C243.574 116.208 242.653 121.047 241.556 125.825C241.551 125.82 241.547 125.815 241.543 125.811C236.026 120.118 226.814 120.111 220.969 125.796C219.008 127.704 217.675 130.011 216.978 132.448L199.939 123.262C197.024 121.691 193.389 122.786 191.82 125.707L190.768 127.666C189.199 130.586 190.291 134.228 193.206 135.799L231.641 156.514C229.478 161.603 227.098 166.532 224.512 171.279C223.369 168.138 221.374 165.261 218.568 163.027C210.48 156.586 198.724 157.919 192.312 166.002C185.9 174.084 187.258 185.858 195.346 192.298C198.934 195.156 203.245 196.482 207.49 196.369C203.055 201.652 198.328 206.498 193.349 210.873C193.522 208.157 192.879 205.52 191.317 203.303C188.594 199.436 183.734 197.774 178.611 198.432C180.652 193.397 180.209 187.53 176.907 182.842C171.69 175.435 161.314 173.774 153.73 179.135C153.62 179.214 153.51 179.294 153.401 179.375L153.398 179.369L140 188.84L149.388 202.172C149.407 202.2 149.427 202.229 149.446 202.256C149.466 202.284 149.486 202.312 149.506 202.339L167.654 228.11C153.728 234.904 138.942 238.397 124.02 238.397C107.93 238.397 91.9975 234.341 77.1328 226.46C63.1779 219.061 50.4197 208.428 39.4971 195.105C40.2483 195.362 41.0001 195.574 41.749 195.737C44.6411 196.367 47.4166 196.271 49.874 195.456C52.3316 194.64 54.4107 193.125 55.958 191.021C57.5053 188.917 58.4826 186.275 58.8203 183.29C59.1041 180.78 58.9273 178.079 58.3076 175.328C58.5953 174.215 58.7213 173.027 58.7324 171.888C58.733 171.834 58.7346 171.78 58.7363 171.726C58.7934 169.936 59.4976 168.599 60.709 167.984C61.9206 167.369 63.5505 167.52 65.2725 168.407C65.8827 168.721 66.4895 169.12 67.0762 169.588C68.9454 171.082 71.5973 171.666 73.5684 170.307C75.5395 168.948 76.0563 166.227 74.501 164.407C71.5687 160.976 68.1973 158.201 64.7754 156.439C60.2719 154.12 56.0096 153.726 52.8408 155.335C49.6723 156.944 46.7812 161.368 46.6318 166.049C46.5397 168.942 46.8944 172.217 47.873 175.54C47.9969 176.419 48.0158 177.278 47.9238 178.091C47.7748 179.409 47.3429 180.575 46.6602 181.503C45.9773 182.432 45.06 183.101 43.9756 183.461C42.8911 183.821 41.665 183.864 40.3887 183.585C39.1123 183.307 37.816 182.714 36.5947 181.851C35.3735 180.988 34.2571 179.876 33.3271 178.596C33.1688 178.378 33.015 178.156 32.8691 177.93C31.6331 176.022 29.6302 174.54 27.3623 174.669C26.7509 174.705 26.1765 174.847 25.6582 175.075C23.3379 171.076 21.1687 166.937 19.1562 162.673C21.0036 163.567 23.0656 164.067 25.2412 164.067C33.1617 164.067 39.5827 157.451 39.583 149.289C39.583 146.235 38.684 143.398 37.1445 141.043L55.7861 135.129C58.9447 134.128 60.6967 130.754 59.6982 127.594L59.2803 126.273C58.2816 123.114 54.9114 121.364 51.7529 122.366L10.0625 135.589C9.72866 135.695 9.41116 135.829 9.11035 135.985C7.50392 130.426 6.14822 124.763 5.0459 119.024C7.28731 120.381 9.73057 121.2 12.2227 121.426C14.895 121.668 17.5573 121.222 20.0137 120.122C22.47 119.021 24.6606 117.292 26.4258 115.061C27.8841 113.218 29.0195 111.07 29.7842 108.727C30.6062 107.877 31.3342 106.885 31.9746 105.921C32.8983 104.532 34.2019 103.733 35.623 103.684C37.0442 103.636 38.4805 104.341 39.6436 105.66C39.89 105.939 40.1202 106.243 40.333 106.565C41.7167 108.661 43.9142 110.504 46.4004 110.143C48.8864 109.782 50.6466 107.455 49.9053 105.055C48.8391 101.606 47.1558 98.4918 45.0049 96.0533C41.9632 92.6052 38.209 90.7585 34.4922 90.8853C30.7753 91.0125 25.9451 93.4578 23.5293 97.0923C22.0383 99.3357 20.7731 102.041 20.0625 105.007C19.7488 105.747 19.3465 106.433 18.8643 107.043C18.0852 108.027 17.1182 108.79 16.0342 109.276C14.9503 109.762 13.7758 109.958 12.5967 109.851C11.4173 109.744 10.2613 109.337 9.21484 108.658C8.16863 107.979 7.25598 107.046 6.54492 105.927C5.83381 104.808 5.34179 103.529 5.10352 102.185C4.74948 100.189 3.78547 98.1675 2.07031 97.2173C1.69718 95.0367 1.5 92.7954 1.5 90.5083V64.3335H1.50488C1.50226 64.47 1.5 64.6074 1.5 64.7447C1.5002 74.0401 7.55468 81.5754 15.0225 81.5757C19.7464 81.5756 23.9034 78.5595 26.3213 73.9908C29.2521 78.5595 34.2916 81.5755 40.0176 81.5757C49.0696 81.5757 56.408 74.0402 56.4082 64.7447C56.4082 64.6074 56.4065 64.47 56.4033 64.3335H56.4082V64.1646C55.663 64.7983 54.8302 65.1547 53.9502 65.1548C50.7821 65.1544 48.2129 60.5591 48.2129 54.8912C48.213 52.1959 48.7951 49.7439 49.7451 47.9126H27.0117C27.9618 49.7439 28.5448 52.1958 28.5449 54.8912C28.5449 60.5591 25.9757 65.1544 22.8076 65.1548C19.6397 65.1541 17.0713 60.5589 17.0713 54.8912C17.0714 52.1959 17.6536 49.7439 18.6035 47.9126H1.5V4.39702L20.8359 29.439C25.549 27.0762 30.8687 25.7447 36.5 25.7447H46.7988C49.7512 25.7447 52.5884 26.2374 55.2334 27.1441L72.7988 4.39702V47.9126ZM202.44 174.067C204.418 171.575 208.043 171.164 210.537 173.15C213.031 175.136 213.451 178.767 211.474 181.259C209.496 183.752 205.871 184.162 203.377 182.176C200.883 180.19 200.463 176.559 202.44 174.067ZM25.2412 145.738C27.144 145.738 28.6864 147.328 28.6865 149.289C28.6862 151.249 27.1439 152.838 25.2412 152.838C23.3389 152.838 21.7962 151.249 21.7959 149.289C21.796 147.328 23.3387 145.738 25.2412 145.738ZM228.559 133.629C229.963 132.264 232.176 132.265 233.501 133.632C234.826 135 234.762 137.217 233.357 138.583C232.457 139.458 231.224 139.771 230.106 139.523L228.488 138.651C228.464 138.627 228.439 138.603 228.415 138.579C227.09 137.211 227.155 134.995 228.559 133.629ZM229.275 73.5884C225.43 73.4654 222.213 76.4828 222.09 80.3277L221.355 103.332C221.233 107.177 224.251 110.394 228.096 110.517C231.941 110.64 235.157 107.623 235.28 103.778L236.015 80.774C236.137 76.9292 233.12 73.7121 229.275 73.5884ZM230.967 52.0181C226.894 52.0186 223.592 55.6949 223.592 60.229C223.592 64.763 226.894 68.4385 230.967 68.439C235.04 68.4389 238.342 64.7632 238.343 60.229C238.343 55.6947 235.04 52.0183 230.967 52.0181Z" fill="#FF7ABF"/>
<path d="M72.7988 47.9126V49.4126H74.2988V47.9126H72.7988ZM72.5166 47.9126V46.4126H70.7787L71.0327 48.1318L72.5166 47.9126ZM72.7988 92.7222H71.2988V92.8214L71.3119 92.9197L72.7988 92.7222ZM76.0186 107.025L74.5914 107.487V107.487L76.0186 107.025ZM87.2803 128.6L86.0982 129.524V129.524L87.2803 128.6ZM104.137 143.016L103.434 144.341L103.434 144.341L104.137 143.016ZM124.02 148.078V149.578H124.02L124.02 148.078ZM143.901 143.016L144.604 144.341V144.341L143.901 143.016ZM160.758 128.6L161.94 129.524V129.524L160.758 128.6ZM172.021 107.025L173.448 107.487V107.487L172.021 107.025ZM173.483 101.918L174.938 102.283L175.017 101.968L174.959 101.648L173.483 101.918ZM173.105 94.3326L171.61 94.2153V94.2153L173.105 94.3326ZM176.497 51.0718L175.002 50.9546V50.9546L176.497 51.0718ZM220.315 28.4634L219.544 29.7501L219.544 29.7501L220.315 28.4634ZM262.844 53.9488L263.615 52.6621L263.615 52.6621L262.844 53.9488ZM258.404 105.869L258.946 107.268L258.946 107.268L258.404 105.869ZM244.312 111.323L243.77 109.924L242.958 110.238L242.828 111.099L244.312 111.323ZM241.556 125.825L240.477 126.867L242.399 128.855L243.018 126.161L241.556 125.825ZM241.543 125.811L242.62 124.767L242.62 124.767L241.543 125.811ZM220.969 125.796L219.923 124.721L219.923 124.721L220.969 125.796ZM216.978 132.448L216.266 133.768L217.907 134.653L218.42 132.861L216.978 132.448ZM199.939 123.262L200.651 121.942L200.651 121.942L199.939 123.262ZM191.82 125.707L193.142 126.417L193.142 126.416L191.82 125.707ZM190.768 127.666L189.446 126.956L189.446 126.956L190.768 127.666ZM193.206 135.799L192.494 137.12L192.494 137.12L193.206 135.799ZM231.641 156.514L233.021 157.101L233.556 155.842L232.352 155.194L231.641 156.514ZM224.512 171.279L223.102 171.792L224.238 174.916L225.829 171.996L224.512 171.279ZM218.568 163.027L219.503 161.853L219.503 161.853L218.568 163.027ZM192.312 166.002L191.136 165.069L191.136 165.069L192.312 166.002ZM195.346 192.298L194.411 193.472L194.411 193.472L195.346 192.298ZM207.49 196.369L208.639 197.333L210.782 194.781L207.45 194.869L207.49 196.369ZM193.349 210.873L191.852 210.777L191.621 214.387L194.339 212L193.349 210.873ZM191.317 203.303L192.544 202.44L192.544 202.44L191.317 203.303ZM178.611 198.432L177.221 197.869L176.257 200.247L178.803 199.92L178.611 198.432ZM176.907 182.842L178.134 181.979L178.134 181.979L176.907 182.842ZM153.73 179.135L152.865 177.91L152.865 177.911L153.73 179.135ZM153.401 179.375L152.06 180.045L152.859 181.645L154.295 180.579L153.401 179.375ZM153.398 179.369L154.74 178.698L153.959 177.136L152.533 178.144L153.398 179.369ZM140 188.84L139.134 187.616L137.912 188.48L138.774 189.704L140 188.84ZM149.388 202.172L150.62 201.316L150.614 201.309L149.388 202.172ZM149.446 202.256L148.22 203.12L148.22 203.12L149.446 202.256ZM149.506 202.339L150.732 201.476L150.727 201.468L149.506 202.339ZM167.654 228.11L168.312 229.458L169.895 228.686L168.881 227.246L167.654 228.11ZM124.02 238.397V239.897H124.02L124.02 238.397ZM77.1328 226.46L76.4302 227.785V227.785L77.1328 226.46ZM39.4971 195.105L39.9824 193.686L34.9957 191.98L38.3371 196.056L39.4971 195.105ZM41.749 195.737L41.4294 197.202H41.4295L41.749 195.737ZM49.874 195.456L50.3464 196.879L50.3465 196.879L49.874 195.456ZM55.958 191.021L57.1665 191.91L57.1665 191.91L55.958 191.021ZM58.8203 183.29L60.3108 183.458L60.3108 183.458L58.8203 183.29ZM58.3076 175.328L56.8553 174.952L56.7646 175.303L56.8443 175.657L58.3076 175.328ZM58.7324 171.888L57.2325 171.873V171.874L58.7324 171.888ZM58.7363 171.726L57.2371 171.678L57.2371 171.679L58.7363 171.726ZM60.709 167.984L60.0298 166.646L60.0296 166.647L60.709 167.984ZM65.2725 168.407L65.9592 167.073L65.9591 167.073L65.2725 168.407ZM67.0762 169.588L68.0127 168.417L68.0127 168.417L67.0762 169.588ZM73.5684 170.307L74.4197 171.542L74.4199 171.542L73.5684 170.307ZM74.501 164.407L75.6413 163.432L75.6412 163.432L74.501 164.407ZM64.7754 156.439L65.4621 155.105L65.4621 155.105L64.7754 156.439ZM52.8408 155.335L52.1617 153.997L52.1615 153.997L52.8408 155.335ZM46.6318 166.049L45.1326 166.002L45.1326 166.002L46.6318 166.049ZM47.873 175.54L49.3584 175.33L49.343 175.221L49.3119 175.116L47.873 175.54ZM47.9238 178.091L49.4143 178.26L49.4143 178.26L47.9238 178.091ZM46.6602 181.503L47.8686 182.392L47.8687 182.392L46.6602 181.503ZM43.9756 183.461L44.4479 184.885L44.4482 184.885L43.9756 183.461ZM40.3887 183.585L40.069 185.051L40.0691 185.051L40.3887 183.585ZM36.5947 181.851L35.7292 183.076L35.7293 183.076L36.5947 181.851ZM33.3271 178.596L32.1135 179.478L32.1136 179.478L33.3271 178.596ZM32.8691 177.93L34.1282 177.115L34.1281 177.115L32.8691 177.93ZM27.3623 174.669L27.2766 173.172L27.2763 173.172L27.3623 174.669ZM25.6582 175.075L24.3608 175.828L25.0339 176.988L26.2619 176.448L25.6582 175.075ZM19.1562 162.673L19.8093 161.323L15.9877 159.475L17.7998 163.314L19.1562 162.673ZM25.2412 164.067L25.2411 165.567H25.2412V164.067ZM39.583 149.289L41.083 149.289V149.289L39.583 149.289ZM37.1445 141.043L36.691 139.613L34.8083 140.21L35.889 141.863L37.1445 141.043ZM55.7861 135.129L56.2397 136.559H56.2397L55.7861 135.129ZM59.6982 127.594L61.1285 127.142L61.1284 127.142L59.6982 127.594ZM59.2803 126.273L57.85 126.725L57.8501 126.725L59.2803 126.273ZM51.7529 122.366L52.2064 123.796V123.796L51.7529 122.366ZM10.0625 135.589L9.60899 134.16L9.60886 134.16L10.0625 135.589ZM9.11035 135.985L7.66932 136.401L8.17697 138.158L9.80046 137.317L9.11035 135.985ZM5.0459 119.024L5.82269 117.741L2.93642 115.994L3.57282 119.307L5.0459 119.024ZM12.2227 121.426L12.0873 122.92L12.0874 122.92L12.2227 121.426ZM20.0137 120.122L20.6271 121.49L20.6272 121.49L20.0137 120.122ZM26.4258 115.061L27.602 115.992L27.6021 115.992L26.4258 115.061ZM29.7842 108.727L28.706 107.684L28.4656 107.933L28.3582 108.262L29.7842 108.727ZM31.9746 105.921L33.2238 106.752L33.2239 106.752L31.9746 105.921ZM35.623 103.684L35.5719 102.185L35.5717 102.185L35.623 103.684ZM39.6436 105.66L40.7685 104.668L40.7684 104.667L39.6436 105.66ZM40.333 106.565L41.5848 105.739L41.5848 105.739L40.333 106.565ZM46.4004 110.143L46.6159 111.628L46.6163 111.627L46.4004 110.143ZM49.9053 105.055L51.3385 104.613L51.3384 104.612L49.9053 105.055ZM45.0049 96.0533L46.1298 95.061L46.1298 95.061L45.0049 96.0533ZM34.4922 90.8853L34.441 89.3862L34.4409 89.3862L34.4922 90.8853ZM23.5293 97.0923L22.2801 96.262L22.28 96.262L23.5293 97.0923ZM20.0625 105.007L21.4436 105.593L21.4922 105.478L21.5212 105.357L20.0625 105.007ZM18.8643 107.043L20.0405 107.973L20.0406 107.973L18.8643 107.043ZM16.0342 109.276L16.6475 110.645L16.6476 110.645L16.0342 109.276ZM12.5967 109.851L12.4613 111.345L12.4615 111.345L12.5967 109.851ZM9.21484 108.658L8.39845 109.916L8.39858 109.916L9.21484 108.658ZM6.54492 105.927L5.27879 106.732L5.27885 106.732L6.54492 105.927ZM5.10352 102.185L6.58047 101.923L6.58045 101.923L5.10352 102.185ZM2.07031 97.2173L0.591801 97.4703L0.713299 98.1804L1.34345 98.5295L2.07031 97.2173ZM1.5 64.3335V62.8335H0V64.3335H1.5ZM1.50488 64.3335L3.00461 64.3624L3.03402 62.8335H1.50488V64.3335ZM1.5 64.7447L0 64.7447V64.7447L1.5 64.7447ZM15.0225 81.5757L15.0224 83.0757H15.0225L15.0225 81.5757ZM26.3213 73.9908L27.5838 73.1809L26.197 71.0189L24.9955 73.2891L26.3213 73.9908ZM40.0176 81.5757L40.0175 83.0757H40.0176L40.0176 81.5757ZM56.4082 64.7447L57.9082 64.7447V64.7447L56.4082 64.7447ZM56.4033 64.3335V62.8335H54.8679L54.9037 64.3685L56.4033 64.3335ZM56.4082 64.3335V65.8335H57.9082V64.3335H56.4082ZM56.4082 64.1646H57.9082V60.9199L55.4365 63.0219L56.4082 64.1646ZM53.9502 65.1548L53.95 66.6548H53.9505L53.9502 65.1548ZM48.2129 54.8912L46.7129 54.8911V54.8912L48.2129 54.8912ZM49.7451 47.9126L51.0766 48.6034L52.2132 46.4126H49.7451V47.9126ZM27.0117 47.9126V46.4126H24.5436L25.6803 48.6034L27.0117 47.9126ZM28.5449 54.8912L30.0449 54.8912V54.8911L28.5449 54.8912ZM22.8076 65.1548L22.8073 66.6548H22.8078L22.8076 65.1548ZM17.0713 54.8912L15.5713 54.8911V54.8912L17.0713 54.8912ZM18.6035 47.9126L19.935 48.6034L21.0714 46.4126H18.6035V47.9126ZM1.5 47.9126H0V49.4126H1.5V47.9126ZM1.5 4.39702L2.68726 3.48028L0 4.29153e-06V4.39702H1.5ZM20.8359 29.439L19.6487 30.3557L20.4037 31.3336L21.5082 30.7799L20.8359 29.439ZM36.5 25.7447V24.2447V25.7447ZM46.7988 25.7447L46.7988 24.2447H46.7988V25.7447ZM55.2334 27.1441L54.747 28.563L55.7637 28.9116L56.4206 28.0609L55.2334 27.1441ZM72.7988 4.39702H74.2988V0.000300407L71.6116 3.48023L72.7988 4.39702ZM202.44 174.067L201.265 173.135L201.265 173.135L202.44 174.067ZM210.537 173.15L211.471 171.977L211.471 171.976L210.537 173.15ZM211.474 181.259L212.649 182.192L212.649 182.192L211.474 181.259ZM203.377 182.176L202.442 183.35L202.443 183.35L203.377 182.176ZM25.2412 145.738V144.238H25.2409L25.2412 145.738ZM28.6865 149.289L30.1865 149.289V149.289L28.6865 149.289ZM25.2412 152.838L25.2409 154.338H25.2412V152.838ZM21.7959 149.289L20.2959 149.289V149.289L21.7959 149.289ZM228.559 133.629L227.513 132.554L227.513 132.554L228.559 133.629ZM233.501 133.632L234.578 132.589L234.578 132.588L233.501 133.632ZM233.357 138.583L234.403 139.658L234.403 139.658L233.357 138.583ZM230.106 139.523L229.395 140.843L229.578 140.942L229.781 140.987L230.106 139.523ZM228.488 138.651L227.443 139.727L227.593 139.872L227.777 139.971L228.488 138.651ZM228.415 138.579L227.338 139.622L227.338 139.623L228.415 138.579ZM229.275 73.5884L229.324 72.0892L229.323 72.0892L229.275 73.5884ZM222.09 80.3277L220.591 80.2797V80.2798L222.09 80.3277ZM221.355 103.332L219.856 103.284V103.284L221.355 103.332ZM228.096 110.517L228.048 112.016L228.048 112.016L228.096 110.517ZM235.28 103.778L236.78 103.826V103.826L235.28 103.778ZM236.015 80.774L237.514 80.8218V80.8217L236.015 80.774ZM230.967 52.0181L230.967 50.5181H230.967L230.967 52.0181ZM223.592 60.229L222.092 60.229V60.2291L223.592 60.229ZM230.967 68.439L230.967 69.939H230.967L230.967 68.439ZM238.343 60.229L239.843 60.2291V60.229L238.343 60.229ZM72.7988 47.9126V46.4126H72.5166V47.9126V49.4126H72.7988V47.9126ZM72.5166 47.9126L71.0327 48.1318C71.207 49.3115 71.2988 50.5178 71.2988 51.7447H72.7988H74.2988C74.2988 50.3678 74.1957 49.0149 74.0005 47.6934L72.5166 47.9126ZM72.7988 51.7447H71.2988V92.7222H72.7988H74.2988V51.7447H72.7988ZM72.7988 92.7222L71.3119 92.9197C71.9737 97.9023 73.0712 102.789 74.5914 107.487L76.0186 107.025L77.4457 106.563C75.9827 102.042 74.9244 97.3327 74.2858 92.5247L72.7988 92.7222ZM76.0186 107.025L74.5914 107.487C77.252 115.708 81.157 123.199 86.0982 129.524L87.2803 128.6L88.4623 127.677C83.7545 121.651 80.0071 114.478 77.4457 106.563L76.0186 107.025ZM87.2803 128.6L86.0982 129.524C91.0397 135.849 96.9267 140.891 103.434 144.341L104.137 143.016L104.839 141.691C98.7396 138.457 93.1699 133.702 88.4623 127.677L87.2803 128.6ZM104.137 143.016L103.434 144.341C109.944 147.793 116.94 149.578 124.02 149.578V148.078V146.578C117.453 146.578 110.937 144.923 104.839 141.691L104.137 143.016ZM124.02 148.078L124.02 149.578C131.098 149.578 138.094 147.793 144.604 144.341L143.901 143.016L143.199 141.691C137.102 144.923 130.586 146.578 124.02 146.578L124.02 148.078ZM143.901 143.016L144.604 144.341C151.111 140.891 156.998 135.849 161.94 129.524L160.758 128.6L159.576 127.677C154.868 133.702 149.298 138.457 143.199 141.691L143.901 143.016ZM160.758 128.6L161.94 129.524C166.881 123.199 170.787 115.708 173.448 107.487L172.021 107.025L170.593 106.563C168.032 114.478 164.284 121.651 159.576 127.677L160.758 128.6ZM172.021 107.025L173.448 107.487C174.002 105.775 174.498 104.038 174.938 102.283L173.483 101.918L172.029 101.552C171.604 103.246 171.126 104.918 170.593 106.563L172.021 107.025ZM173.483 101.918L174.959 101.648C174.54 99.3538 174.405 96.9444 174.601 94.4498L173.105 94.3326L171.61 94.2153C171.394 96.9687 171.542 99.638 172.008 102.187L173.483 101.918ZM173.105 94.3326L174.601 94.4498L177.992 51.1891L176.497 51.0718L175.002 50.9546L171.61 94.2153L173.105 94.3326ZM176.497 51.0718L177.992 51.1891C179.589 30.8326 202.03 19.254 219.544 29.7501L220.315 28.4634L221.086 27.1768C201.661 15.5357 176.772 28.3774 175.002 50.9546L176.497 51.0718ZM220.315 28.4634L219.544 29.7501L262.073 55.2354L262.844 53.9488L263.615 52.6621L221.086 27.1768L220.315 28.4634ZM262.844 53.9488L262.073 55.2354C281.708 67.0023 279.21 96.2066 257.863 104.47L258.404 105.869L258.946 107.268C282.622 98.1029 285.392 65.7128 263.615 52.6621L262.844 53.9488ZM258.404 105.869L257.863 104.47L243.77 109.924L244.312 111.323L244.853 112.722L258.946 107.268L258.404 105.869ZM244.312 111.323L242.828 111.099C242.097 115.946 241.183 120.748 240.094 125.489L241.556 125.825L243.018 126.161C244.123 121.346 245.052 116.469 245.795 111.547L244.312 111.323ZM241.556 125.825L242.634 124.782C242.644 124.792 242.651 124.8 242.655 124.804C242.656 124.806 242.658 124.807 242.658 124.808C242.659 124.809 242.659 124.809 242.659 124.808C242.658 124.808 242.657 124.806 242.655 124.804C242.653 124.802 242.651 124.8 242.648 124.796C242.642 124.79 242.632 124.779 242.62 124.767L241.543 125.811L240.466 126.855C240.456 126.845 240.449 126.837 240.445 126.833C240.443 126.831 240.441 126.829 240.44 126.828C240.44 126.827 240.439 126.827 240.44 126.828C240.44 126.828 240.442 126.83 240.443 126.831C240.445 126.833 240.447 126.836 240.45 126.839C240.456 126.845 240.465 126.855 240.477 126.867L241.556 125.825ZM241.543 125.811L242.62 124.767C236.498 118.45 226.334 118.486 219.923 124.721L220.969 125.796L222.015 126.872C227.294 121.737 235.554 121.786 240.466 126.855L241.543 125.811ZM220.969 125.796L219.923 124.721C217.77 126.815 216.303 129.352 215.535 132.035L216.978 132.448L218.42 132.861C219.047 130.67 220.245 128.593 222.015 126.872L220.969 125.796ZM216.978 132.448L217.689 131.127L200.651 121.942L199.939 123.262L199.228 124.583L216.266 133.768L216.978 132.448ZM199.939 123.262L200.651 121.942C197.004 119.977 192.459 121.347 190.499 124.997L191.82 125.707L193.142 126.416C194.319 124.225 197.044 123.406 199.228 124.583L199.939 123.262ZM191.82 125.707L190.499 124.997L189.446 126.956L190.768 127.666L192.089 128.376L193.142 126.417L191.82 125.707ZM190.768 127.666L189.446 126.956C187.487 130.604 188.85 135.155 192.494 137.12L193.206 135.799L193.918 134.479C191.733 133.301 190.912 130.568 192.089 128.375L190.768 127.666ZM193.206 135.799L192.494 137.12L230.929 157.835L231.641 156.514L232.352 155.194L193.918 134.479L193.206 135.799ZM231.641 156.514L230.26 155.927C228.116 160.973 225.757 165.858 223.195 170.561L224.512 171.279L225.829 171.996C228.439 167.206 230.84 162.233 233.021 157.101L231.641 156.514ZM224.512 171.279L225.921 170.766C224.687 167.373 222.531 164.265 219.503 161.853L218.568 163.027L217.634 164.2C220.217 166.257 222.051 168.903 223.102 171.792L224.512 171.279ZM218.568 163.027L219.503 161.853C210.768 154.898 198.066 156.334 191.136 165.069L192.312 166.002L193.487 166.934C199.382 159.503 210.192 158.275 217.634 164.2L218.568 163.027ZM192.312 166.002L191.136 165.069C184.208 173.803 185.679 186.517 194.411 193.472L195.346 192.298L196.28 191.125C188.837 185.198 187.591 174.366 193.487 166.934L192.312 166.002ZM195.346 192.298L194.411 193.472C198.286 196.557 202.945 197.99 207.53 197.868L207.49 196.369L207.45 194.869C203.545 194.973 199.582 193.755 196.28 191.125L195.346 192.298ZM207.49 196.369L206.341 195.404C201.954 200.632 197.279 205.423 192.359 209.746L193.349 210.873L194.339 212C199.377 207.573 204.157 202.672 208.639 197.333L207.49 196.369ZM193.349 210.873L194.846 210.968C195.039 207.951 194.324 204.967 192.544 202.44L191.317 203.303L190.091 204.167C191.433 206.073 192.006 208.362 191.852 210.777L193.349 210.873ZM191.317 203.303L192.544 202.44C189.425 198.011 183.952 196.233 178.42 196.944L178.611 198.432L178.803 199.92C183.516 199.314 187.762 200.861 190.091 204.167L191.317 203.303ZM178.611 198.432L180.001 198.996C182.221 193.519 181.747 187.11 178.134 181.979L176.907 182.842L175.681 183.706C178.67 187.951 179.083 193.275 177.221 197.869L178.611 198.432ZM176.907 182.842L178.134 181.979C172.419 173.864 161.096 172.091 152.865 177.91L153.73 179.135L154.596 180.36C161.531 175.458 170.961 177.005 175.681 183.706L176.907 182.842ZM153.73 179.135L152.865 177.911C152.741 177.998 152.621 178.086 152.507 178.17L153.401 179.375L154.295 180.579C154.399 180.502 154.499 180.429 154.596 180.36L153.73 179.135ZM153.401 179.375L154.743 178.704L154.74 178.698L153.398 179.369L152.057 180.04L152.06 180.045L153.401 179.375ZM153.398 179.369L152.533 178.144L139.134 187.616L140 188.84L140.866 190.065L154.264 180.594L153.398 179.369ZM140 188.84L138.774 189.704L148.161 203.036L149.388 202.172L150.614 201.309L141.226 187.977L140 188.84ZM149.388 202.172L148.156 203.028C148.174 203.055 148.197 203.088 148.22 203.12L149.446 202.256L150.673 201.393C150.657 201.37 150.64 201.345 150.619 201.316L149.388 202.172ZM149.446 202.256L148.22 203.12C148.235 203.142 148.249 203.162 148.26 203.176C148.272 203.192 148.278 203.201 148.285 203.211L149.506 202.339L150.727 201.468C150.686 201.41 150.694 201.423 150.673 201.393L149.446 202.256ZM149.506 202.339L148.279 203.203L166.428 228.974L167.654 228.11L168.881 227.246L150.732 201.476L149.506 202.339ZM167.654 228.11L166.997 226.762C153.267 233.46 138.705 236.897 124.02 236.897L124.02 238.397L124.02 239.897C139.18 239.897 154.19 236.348 168.312 229.458L167.654 228.11ZM124.02 238.397V236.897C108.186 236.897 92.4939 232.906 77.8354 225.134L77.1328 226.46L76.4302 227.785C91.5011 235.775 107.674 239.897 124.02 239.897V238.397ZM77.1328 226.46L77.8354 225.134C64.0719 217.837 51.4653 207.337 40.6571 194.154L39.4971 195.105L38.3371 196.056C49.3741 209.518 62.2839 220.285 76.4302 227.785L77.1328 226.46ZM39.4971 195.105L39.0117 196.524C39.8141 196.799 40.6212 197.026 41.4294 197.202L41.749 195.737L42.0686 194.271C41.3789 194.121 40.6825 193.925 39.9824 193.686L39.4971 195.105ZM41.749 195.737L41.4295 197.202C44.5463 197.882 47.5989 197.791 50.3464 196.879L49.874 195.456L49.4016 194.032C47.2344 194.751 44.7358 194.853 42.0686 194.271L41.749 195.737ZM49.874 195.456L50.3465 196.879C53.1013 195.965 55.4366 194.262 57.1665 191.91L55.958 191.021L54.7495 190.132C53.3848 191.988 51.562 193.315 49.4015 194.032L49.874 195.456ZM55.958 191.021L57.1665 191.91C58.8913 189.564 59.9482 186.664 60.3108 183.458L58.8203 183.29L57.3298 183.121C57.0171 185.886 56.1192 188.27 54.7495 190.132L55.958 191.021ZM58.8203 183.29L60.3108 183.458C60.6157 180.762 60.4228 177.892 59.771 174.998L58.3076 175.328L56.8443 175.657C57.4318 178.266 57.5926 180.797 57.3298 183.121L58.8203 183.29ZM58.3076 175.328L59.7599 175.703C60.0842 174.448 60.2203 173.136 60.2323 171.903L58.7324 171.888L57.2325 171.874C57.2223 172.918 57.1064 173.981 56.8553 174.952L58.3076 175.328ZM58.7324 171.888L60.2323 171.903C60.2327 171.867 60.2338 171.829 60.2356 171.774L58.7363 171.726L57.2371 171.679C57.2354 171.731 57.2332 171.801 57.2325 171.873L58.7324 171.888ZM58.7363 171.726L60.2356 171.774C60.2816 170.33 60.8218 169.609 61.3883 169.321L60.709 167.984L60.0296 166.647C58.1734 167.59 57.3052 169.543 57.2371 171.678L58.7363 171.726ZM60.709 167.984L61.3881 169.321C62.0066 169.007 63.0976 168.974 64.5858 169.74L65.2725 168.407L65.9591 167.073C64.0034 166.066 61.8345 165.73 60.0298 166.646L60.709 167.984ZM65.2725 168.407L64.5857 169.74C65.0983 170.004 65.6221 170.346 66.1397 170.76L67.0762 169.588L68.0127 168.417C67.3569 167.893 66.6671 167.438 65.9592 167.073L65.2725 168.407ZM67.0762 169.588L66.1397 170.76C68.3048 172.491 71.7023 173.415 74.4197 171.542L73.5684 170.307L72.717 169.072C71.4923 169.916 69.5859 169.674 68.0127 168.417L67.0762 169.588ZM73.5684 170.307L74.4199 171.542C77.0321 169.741 77.8444 166.01 75.6413 163.432L74.501 164.407L73.3607 165.381C74.2681 166.443 74.0469 168.155 72.7169 169.072L73.5684 170.307ZM74.501 164.407L75.6412 163.432C72.6065 159.882 69.0872 156.972 65.4621 155.105L64.7754 156.439L64.0886 157.773C67.3074 159.43 70.5308 162.07 73.3607 165.381L74.501 164.407ZM64.7754 156.439L65.4621 155.105C60.7244 152.666 55.9232 152.087 52.1617 153.997L52.8408 155.335L53.5199 156.672C56.0959 155.364 59.8194 155.574 64.0887 157.773L64.7754 156.439ZM52.8408 155.335L52.1615 153.997C48.4539 155.88 45.2975 160.833 45.1326 166.002L46.6318 166.049L48.1311 166.097C48.2648 161.904 50.8908 158.007 53.5201 156.672L52.8408 155.335ZM46.6318 166.049L45.1326 166.002C45.0356 169.047 45.4088 172.482 46.4342 175.963L47.873 175.54L49.3119 175.116C48.38 171.952 48.0439 168.836 48.1311 166.097L46.6318 166.049ZM47.873 175.54L46.3877 175.749C46.4959 176.517 46.5096 177.248 46.4333 177.923L47.9238 178.091L49.4143 178.26C49.522 177.308 49.4979 176.321 49.3584 175.33L47.873 175.54ZM47.9238 178.091L46.4333 177.923C46.3093 179.019 45.9571 179.927 45.4516 180.615L46.6602 181.503L47.8687 182.392C48.7287 181.222 49.2403 179.798 49.4143 178.26L47.9238 178.091ZM46.6602 181.503L45.4518 180.615C44.9509 181.296 44.2894 181.777 43.503 182.038L43.9756 183.461L44.4482 184.885C45.8305 184.426 47.0038 183.568 47.8686 182.392L46.6602 181.503ZM43.9756 183.461L43.5032 182.038C42.7089 182.301 41.7598 182.349 40.7082 182.12L40.3887 183.585L40.0691 185.051C41.5702 185.378 43.0733 185.341 44.4479 184.885L43.9756 183.461ZM40.3887 183.585L40.7083 182.12C39.6551 181.89 38.5416 181.39 37.4602 180.626L36.5947 181.851L35.7293 183.076C37.0904 184.038 38.5695 184.724 40.069 185.051L40.3887 183.585ZM36.5947 181.851L37.4603 180.626C36.3807 179.863 35.3798 178.87 34.5407 177.715L33.3271 178.596L32.1136 179.478C33.1343 180.883 34.3664 182.113 35.7292 183.076L36.5947 181.851ZM33.3271 178.596L34.5408 177.715C34.3964 177.516 34.258 177.315 34.1282 177.115L32.8691 177.93L31.6101 178.746C31.7721 178.996 31.9412 179.241 32.1135 179.478L33.3271 178.596ZM32.8691 177.93L34.1281 177.115C32.7264 174.951 30.2817 173 27.2766 173.172L27.3623 174.669L27.448 176.167C28.9786 176.079 30.5398 177.093 31.6102 178.746L32.8691 177.93ZM27.3623 174.669L27.2763 173.172C26.4861 173.217 25.7365 173.402 25.0545 173.702L25.6582 175.075L26.2619 176.448C26.6166 176.292 27.0156 176.192 27.4483 176.167L27.3623 174.669ZM25.6582 175.075L26.9556 174.322C24.6571 170.36 22.5076 166.259 20.5127 162.033L19.1562 162.673L17.7998 163.314C19.8299 167.614 22.0187 171.791 24.3608 175.828L25.6582 175.075ZM19.1562 162.673L18.5032 164.024C20.5483 165.013 22.833 165.567 25.2411 165.567L25.2412 164.067L25.2413 162.567C23.2982 162.567 21.4589 162.121 19.8093 161.323L19.1562 162.673ZM25.2412 164.067V165.567C34.0323 165.567 41.0827 158.236 41.083 149.289L39.583 149.289L38.083 149.289C38.0827 156.665 32.2912 162.567 25.2412 162.567V164.067ZM39.583 149.289L41.083 149.289C41.083 145.938 40.0956 142.816 38.4001 140.222L37.1445 141.043L35.889 141.863C37.2724 143.98 38.083 146.533 38.083 149.289L39.583 149.289ZM37.1445 141.043L37.5981 142.472L56.2397 136.559L55.7861 135.129L55.3326 133.7L36.691 139.613L37.1445 141.043ZM55.7861 135.129L56.2397 136.559C60.1869 135.307 62.3765 131.092 61.1285 127.142L59.6982 127.594L58.268 128.046C59.0168 130.416 57.7024 132.948 55.3326 133.7L55.7861 135.129ZM59.6982 127.594L61.1284 127.142L60.7104 125.821L59.2803 126.273L57.8501 126.725L58.2681 128.047L59.6982 127.594ZM59.2803 126.273L60.7105 125.821C59.4621 121.871 55.2483 119.683 51.2994 120.936L51.7529 122.366L52.2064 123.796C54.5746 123.044 57.1012 124.356 57.85 126.725L59.2803 126.273ZM51.7529 122.366L51.2994 120.936L9.60899 134.16L10.0625 135.589L10.516 137.019L52.2064 123.796L51.7529 122.366ZM10.0625 135.589L9.60886 134.16C9.18926 134.293 8.79284 134.46 8.42024 134.653L9.11035 135.985L9.80046 137.317C10.0295 137.198 10.2681 137.098 10.5161 137.019L10.0625 135.589ZM9.11035 135.985L10.5514 135.568C8.95788 130.054 7.6128 124.436 6.51897 118.741L5.0459 119.024L3.57282 119.307C4.68363 125.09 6.04995 130.798 7.66932 136.401L9.11035 135.985ZM5.0459 119.024L4.26911 120.307C6.69517 121.776 9.3564 122.673 12.0873 122.92L12.2227 121.426L12.358 119.932C10.1047 119.728 7.87944 118.986 5.82269 117.741L5.0459 119.024ZM12.2227 121.426L12.0874 122.92C15.0168 123.185 17.9368 122.696 20.6271 121.49L20.0137 120.122L19.4003 118.753C17.1777 119.749 14.7732 120.151 12.3579 119.932L12.2227 121.426ZM20.0137 120.122L20.6272 121.49C23.3161 120.285 25.696 118.401 27.602 115.992L26.4258 115.061L25.2495 114.13C23.6252 116.183 21.6239 117.756 19.4002 118.753L20.0137 120.122ZM26.4258 115.061L27.6021 115.992C29.177 114.002 30.3938 111.693 31.2101 109.193L29.7842 108.727L28.3582 108.262C27.6452 110.446 26.5911 112.435 25.2495 114.13L26.4258 115.061ZM29.7842 108.727L30.8624 109.77C31.7753 108.826 32.561 107.749 33.2238 106.752L31.9746 105.921L30.7254 105.091C30.1073 106.021 29.4372 106.928 28.706 107.684L29.7842 108.727ZM31.9746 105.921L33.2239 106.752C33.9323 105.686 34.8251 105.212 35.6744 105.183L35.623 103.684L35.5717 102.185C33.5787 102.253 31.8642 103.378 30.7254 105.091L31.9746 105.921ZM35.623 103.684L35.6742 105.183C36.543 105.154 37.5755 105.583 38.5187 106.652L39.6436 105.66L40.7684 104.667C39.3855 103.1 37.5453 102.118 35.5719 102.185L35.623 103.684ZM39.6436 105.66L38.5186 106.652C38.7154 106.875 38.9037 107.123 39.0812 107.391L40.333 106.565L41.5848 105.739C41.3368 105.363 41.0646 105.003 40.7685 104.668L39.6436 105.66ZM40.333 106.565L39.0812 107.391C40.5526 109.62 43.2298 112.119 46.6159 111.628L46.4004 110.143L46.1849 108.659C44.5985 108.889 42.8808 107.702 41.5848 105.739L40.333 106.565ZM46.4004 110.143L46.6163 111.627C49.8451 111.158 52.3995 108.047 51.3385 104.613L49.9053 105.055L48.4721 105.498C48.8937 106.863 47.9276 108.405 46.1845 108.659L46.4004 110.143ZM49.9053 105.055L51.3384 104.612C50.218 100.987 48.4388 97.6788 46.1298 95.061L45.0049 96.0533L43.88 97.0455C45.8727 99.3047 47.4603 102.224 48.4722 105.498L49.9053 105.055ZM45.0049 96.0533L46.1298 95.061C42.8685 91.3641 38.7106 89.2405 34.441 89.3862L34.4922 90.8853L34.5433 92.3844C37.7074 92.2765 41.0578 93.8463 43.88 97.0456L45.0049 96.0533ZM34.4922 90.8853L34.4409 89.3862C32.3018 89.4594 29.9371 90.1884 27.8021 91.358C25.6629 92.53 23.6495 94.2017 22.2801 96.262L23.5293 97.0923L24.7785 97.9227C25.8249 96.3484 27.4345 94.9802 29.2436 93.9891C31.0568 92.9956 32.9657 92.4384 34.5435 92.3844L34.4922 90.8853ZM23.5293 97.0923L22.28 96.262C20.7011 98.6377 19.3593 101.504 18.6038 104.658L20.0625 105.007L21.5212 105.357C22.187 102.578 23.3755 100.034 24.7785 97.9226L23.5293 97.0923ZM20.0625 105.007L18.6814 104.422C18.4175 105.045 18.0826 105.613 17.688 106.112L18.8643 107.043L20.0406 107.973C20.6104 107.253 21.0801 106.45 21.4436 105.593L20.0625 105.007ZM18.8643 107.043L17.688 106.112C17.0499 106.918 16.2721 107.526 15.4207 107.907L16.0342 109.276L16.6476 110.645C17.9643 110.055 19.1206 109.136 20.0405 107.973L18.8643 107.043ZM16.0342 109.276L15.4208 107.907C14.5712 108.288 13.6544 108.441 12.7319 108.357L12.5967 109.851L12.4615 111.345C13.8972 111.475 15.3294 111.235 16.6475 110.645L16.0342 109.276ZM12.5967 109.851L12.7321 108.357C11.8082 108.274 10.8841 107.953 10.0311 107.399L9.21484 108.658L8.39858 109.916C9.63852 110.72 11.0265 111.215 12.4613 111.345L12.5967 109.851ZM9.21484 108.658L10.0312 107.399C9.17653 106.845 8.41358 106.071 7.81099 105.123L6.54492 105.927L5.27885 106.732C6.09838 108.022 7.16072 109.113 8.39845 109.916L9.21484 108.658ZM6.54492 105.927L7.81106 105.123C7.20841 104.174 6.78569 103.08 6.58047 101.923L5.10352 102.185L3.62657 102.447C3.89789 103.977 4.45921 105.441 5.27879 106.732L6.54492 105.927ZM5.10352 102.185L6.58045 101.923C6.19049 99.7249 5.08218 97.171 2.79717 95.9052L2.07031 97.2173L1.34345 98.5295C2.48876 99.1639 3.30847 100.654 3.62658 102.447L5.10352 102.185ZM2.07031 97.2173L3.54882 96.9643C3.18972 94.8657 3 92.709 3 90.5083H1.5H0C0 92.8818 0.204644 95.2077 0.591801 97.4703L2.07031 97.2173ZM1.5 90.5083H3V64.3335H1.5H0V90.5083H1.5ZM1.5 64.3335V65.8335H1.50488V64.3335V62.8335H1.5V64.3335ZM1.50488 64.3335L0.00516033 64.3047C0.00250363 64.4428 2.02656e-06 64.5922 0 64.7447L1.5 64.7447L3 64.7447C3 64.6227 3.00201 64.4972 3.00461 64.3624L1.50488 64.3335ZM1.5 64.7447L0 64.7447C0.000206947 74.5455 6.43646 83.0754 15.0224 83.0757L15.0225 81.5757L15.0225 80.0757C8.67291 80.0755 3.00019 73.5348 3 64.7446L1.5 64.7447ZM15.0225 81.5757L15.0225 83.0757C20.4334 83.0755 25.037 79.6243 27.6471 74.6924L26.3213 73.9908L24.9955 73.2891C22.7698 77.4947 19.0594 80.0756 15.0224 80.0757L15.0225 81.5757ZM26.3213 73.9908L25.0587 74.8007C28.2471 79.7709 33.7477 83.0755 40.0175 83.0757L40.0176 81.5757L40.0176 80.0757C34.8356 80.0755 30.2571 77.3481 27.5838 73.1809L26.3213 73.9908ZM40.0176 81.5757L40.0176 83.0757C49.9353 83.0756 57.9079 74.8309 57.9082 64.7447L56.4082 64.7447L54.9082 64.7446C54.908 73.2496 48.2039 80.0757 40.0176 80.0757L40.0176 81.5757ZM56.4082 64.7447L57.9082 64.7447C57.9082 64.5951 57.9063 64.446 57.9029 64.2986L56.4033 64.3335L54.9037 64.3685C54.9067 64.494 54.9082 64.6198 54.9082 64.7447L56.4082 64.7447ZM56.4033 64.3335V65.8335H56.4082V64.3335V62.8335H56.4033V64.3335ZM56.4082 64.3335H57.9082V64.1646H56.4082H54.9082V64.3335H56.4082ZM56.4082 64.1646L55.4365 63.0219C54.9012 63.4771 54.4011 63.6547 53.9499 63.6548L53.9502 65.1548L53.9505 66.6548C55.2593 66.6546 56.4247 66.1196 57.38 65.3073L56.4082 64.1646ZM53.9502 65.1548L53.9504 63.6548C53.1537 63.6547 52.1216 63.06 51.2028 61.4164C50.3114 59.8218 49.7129 57.5177 49.7129 54.8912L48.2129 54.8912L46.7129 54.8912C46.7129 57.9325 47.399 60.7601 48.5842 62.8802C49.742 64.9514 51.5786 66.6545 53.95 66.6548L53.9502 65.1548ZM48.2129 54.8912L49.7129 54.8912C49.713 52.3963 50.2544 50.1883 51.0766 48.6034L49.7451 47.9126L48.4136 47.2219C47.3358 49.2994 46.713 51.9955 46.7129 54.8911L48.2129 54.8912ZM49.7451 47.9126V46.4126H27.0117V47.9126V49.4126H49.7451V47.9126ZM27.0117 47.9126L25.6803 48.6034C26.5027 50.1886 27.0448 52.3966 27.0449 54.8912L28.5449 54.8912L30.0449 54.8911C30.0448 51.995 29.4209 49.2991 28.3432 47.2218L27.0117 47.9126ZM28.5449 54.8912L27.0449 54.8912C27.0449 57.5177 26.4464 59.8218 25.555 61.4164C24.6362 63.06 23.6041 63.6547 22.8074 63.6548L22.8076 65.1548L22.8078 66.6548C25.1792 66.6545 27.0158 64.9514 28.1736 62.8802C29.3588 60.7601 30.0449 57.9325 30.0449 54.8912L28.5449 54.8912ZM22.8076 65.1548L22.808 63.6548C22.0113 63.6546 20.9795 63.0599 20.0609 61.4163C19.1696 59.8217 18.5713 57.5177 18.5713 54.8912L17.0713 54.8912L15.5713 54.8912C15.5713 57.9323 16.2572 60.7598 17.4421 62.8799C18.5997 64.9511 20.436 66.6543 22.8073 66.6548L22.8076 65.1548ZM17.0713 54.8912L18.5713 54.8912C18.5714 52.3963 19.1129 50.1883 19.935 48.6034L18.6035 47.9126L17.272 47.2219C16.1943 49.2994 15.5714 51.9954 15.5713 54.8911L17.0713 54.8912ZM18.6035 47.9126V46.4126H1.5V47.9126V49.4126H18.6035V47.9126ZM1.5 47.9126H3V4.39702H1.5H0V47.9126H1.5ZM1.5 4.39702L0.312736 5.31375L19.6487 30.3557L20.8359 29.439L22.0232 28.5223L2.68726 3.48028L1.5 4.39702ZM20.8359 29.439L21.5082 30.7799C26.0177 28.5192 31.1077 27.2447 36.5 27.2447V25.7447V24.2447C30.6298 24.2447 25.0804 25.6331 20.1637 28.0981L20.8359 29.439ZM36.5 25.7447V27.2447H46.7988V25.7447V24.2447H36.5V25.7447ZM46.7988 25.7447L46.7988 27.2447C49.5833 27.2447 52.2563 27.7092 54.747 28.563L55.2334 27.1441L55.7198 25.7251C52.9206 24.7656 49.9192 24.2447 46.7988 24.2447L46.7988 25.7447ZM55.2334 27.1441L56.4206 28.0609L73.9861 5.3138L72.7988 4.39702L71.6116 3.48023L54.0462 26.2273L55.2334 27.1441ZM72.7988 4.39702H71.2988V47.9126H72.7988H74.2988V4.39702H72.7988ZM202.44 174.067L203.616 174.999C205.075 173.159 207.755 172.852 209.603 174.323L210.537 173.15L211.471 171.976C208.331 169.476 203.76 169.99 201.265 173.135L202.44 174.067ZM210.537 173.15L209.603 174.323C211.452 175.796 211.76 178.485 210.298 180.327L211.474 181.259L212.649 182.192C215.142 179.048 214.61 174.476 211.471 171.977L210.537 173.15ZM211.474 181.259L210.299 180.327C208.839 182.167 206.159 182.474 204.311 181.003L203.377 182.176L202.443 183.35C205.583 185.85 210.154 185.336 212.649 182.192L211.474 181.259ZM203.377 182.176L204.311 181.003C202.462 179.53 202.155 176.841 203.616 174.999L202.44 174.067L201.265 173.135C198.772 176.278 199.304 180.85 202.442 183.35L203.377 182.176ZM25.2412 145.738V147.238C26.2731 147.238 27.1865 148.113 27.1865 149.289L28.6865 149.289L30.1865 149.289C30.1864 146.543 28.0149 144.238 25.2412 144.238V145.738ZM28.6865 149.289L27.1865 149.288C27.1863 150.463 26.2734 151.338 25.2412 151.338V152.838V154.338C28.0144 154.338 30.1861 152.035 30.1865 149.289L28.6865 149.289ZM25.2412 152.838L25.2415 151.338C24.2091 151.338 23.2961 150.463 23.2959 149.288L21.7959 149.289L20.2959 149.289C20.2963 152.035 22.4686 154.338 25.2409 154.338L25.2412 152.838ZM21.7959 149.289L23.2959 149.289C23.2959 148.114 24.2094 147.238 25.2415 147.238L25.2412 145.738L25.2409 144.238C22.4681 144.238 20.296 146.542 20.2959 149.289L21.7959 149.289ZM228.559 133.629L229.604 134.705C230.443 133.889 231.703 133.933 232.424 134.676L233.501 133.632L234.578 132.588C232.648 130.597 229.483 130.638 227.513 132.554L228.559 133.629ZM233.501 133.632L232.424 134.676C233.146 135.421 233.152 136.69 232.312 137.507L233.357 138.583L234.403 139.658C236.372 137.743 236.507 134.579 234.578 132.589L233.501 133.632ZM233.357 138.583L232.312 137.507C231.78 138.024 231.065 138.199 230.432 138.059L230.106 139.523L229.781 140.987C231.384 141.343 233.134 140.891 234.403 139.658L233.357 138.583ZM230.106 139.523L230.818 138.203L229.2 137.33L228.488 138.651L227.777 139.971L229.395 140.843L230.106 139.523ZM228.488 138.651L229.534 137.575C229.527 137.569 229.519 137.561 229.514 137.557C229.509 137.551 229.505 137.547 229.501 137.544C229.494 137.536 229.492 137.534 229.492 137.535L228.415 138.579L227.338 139.623C227.382 139.668 227.43 139.714 227.443 139.727L228.488 138.651ZM228.415 138.579L229.493 137.535C228.771 136.79 228.765 135.522 229.605 134.705L228.559 133.629L227.513 132.554C225.545 134.469 225.41 137.632 227.338 139.622L228.415 138.579ZM229.275 73.5884L229.323 72.0892C224.651 71.9397 220.74 75.6066 220.591 80.2797L222.09 80.3277L223.589 80.3757C223.686 77.3589 226.21 74.9911 229.227 75.0877L229.275 73.5884ZM222.09 80.3277L220.591 80.2798L219.856 103.284L221.355 103.332L222.855 103.379L223.589 80.3755L222.09 80.3277ZM221.355 103.332L219.856 103.284C219.707 107.957 223.375 111.866 228.048 112.016L228.096 110.517L228.144 109.018C225.127 108.921 222.758 106.396 222.855 103.379L221.355 103.332ZM228.096 110.517L228.048 112.016C232.721 112.166 236.63 108.499 236.78 103.826L235.28 103.778L233.781 103.73C233.685 106.747 231.161 109.114 228.144 109.018L228.096 110.517ZM235.28 103.778L236.78 103.826L237.514 80.8218L236.015 80.774L234.515 80.7261L233.781 103.73L235.28 103.778ZM236.015 80.774L237.514 80.8217C237.663 76.1493 233.996 72.2394 229.324 72.0892L229.275 73.5884L229.227 75.0876C232.244 75.1847 234.612 77.7091 234.515 80.7262L236.015 80.774ZM230.967 52.0181L230.967 50.5181C225.918 50.5187 222.092 55.0219 222.092 60.229L223.592 60.229L225.092 60.2291C225.092 56.3679 227.87 53.5185 230.967 53.5181L230.967 52.0181ZM223.592 60.229L222.092 60.2291C222.092 65.4362 225.918 69.9384 230.967 69.939L230.967 68.439L230.967 66.939C227.87 66.9386 225.092 64.0898 225.092 60.229L223.592 60.229ZM230.967 68.439L230.967 69.939C236.016 69.9388 239.842 65.4365 239.843 60.2291L238.343 60.229L236.843 60.229C236.843 64.0899 234.064 66.9389 230.967 66.939L230.967 68.439ZM238.343 60.229L239.843 60.229C239.843 55.0216 236.016 50.5183 230.967 50.5181L230.967 52.0181L230.967 53.5181C234.064 53.5182 236.843 56.3678 236.843 60.2291L238.343 60.229Z" fill="black"/>
<path fill-rule="evenodd" clip-rule="evenodd" d="M189.533 61.0827C189.191 63.7552 189.16 66.5448 189.44 69.2448C189.721 71.9448 190.306 74.4867 191.154 76.6813C192.002 78.8759 193.09 80.6676 194.338 81.9235C195.585 83.1794 196.96 83.8679 198.361 83.9371C199.762 84.0064 201.153 83.4548 202.43 82.3239C203.708 81.1928 204.841 79.5111 205.744 77.403C206.647 75.2949 207.296 72.8142 207.645 70.1452C207.995 67.4762 208.035 64.6871 207.762 61.984L209.447 61.3248C209.77 64.5253 209.724 67.8279 209.31 70.9879C208.897 74.1479 208.127 77.0848 207.058 79.5807C205.99 82.0765 204.649 84.0678 203.137 85.4069C201.624 86.7459 199.977 87.398 198.318 87.3161C196.66 87.234 195.031 86.42 193.554 84.9332C192.078 83.4463 190.79 81.3246 189.786 78.7262C188.782 76.128 188.089 73.1192 187.757 69.9225C187.424 66.7256 187.461 63.4219 187.866 60.2575L189.533 61.0827Z" fill="black"/>
<path d="M270.538 60.564C280.631 72.9396 278.598 91.8889 265.779 101.743C261.851 96.7554 259.5 90.4294 259.5 83.5445C259.5 74.2089 263.819 65.8986 270.538 60.564Z" fill="black"/>
</svg>
